<svg width="64" height="64" viewBox="0 0 16 16" fill="none" xmlns="http://www.w3.org/2000/svg"><path d="M7.4736 0.952515V8.10417H0.321045C0.321044 7.99446 0.376881 7.88475 0.488552 7.82536L3.16237 6.40332C4.27292 5.81268 5.18182 4.90389 5.77258 3.79341L7.19481 1.11999C7.25421 1.00834 7.3639 0.952515 7.4736 0.952515Z" fill="url(#IconAICompanionOnLightFillColor__paint0_radial_45419_301)"/><path d="M14.6262 8.10417L7.47363 8.10417L7.47363 0.952515C7.58333 0.952514 7.69303 1.00834 7.75243 1.11999L9.17466 3.79341C9.76542 4.90389 10.6743 5.81268 11.7849 6.40332L14.4587 7.82536C14.5704 7.88476 14.6262 7.99446 14.6262 8.10417Z" fill="url(#IconAICompanionOnLightFillColor__paint1_radial_45419_301)"/><path d="M7.47363 15.2559L7.47363 8.10428L14.6262 8.10428C14.6262 8.21399 14.5704 8.3237 14.4587 8.38309L11.7849 9.80514C10.6743 10.3958 9.76542 11.3046 9.17465 12.415L7.75242 15.0885C7.69303 15.2001 7.58333 15.2559 7.47363 15.2559Z" fill="url(#IconAICompanionOnLightFillColor__paint2_radial_45419_301)"/><path d="M0.321045 8.10428L7.47569 8.10428V15.258C7.36599 15.258 7.25629 15.2022 7.19689 15.0905L5.77394 12.4158C5.18318 11.3053 4.27428 10.3965 3.16373 9.80586L0.488552 8.38309C0.376881 8.3237 0.321046 8.21399 0.321045 8.10428Z" fill="url(#IconAICompanionOnLightFillColor__paint3_radial_45419_301)"/><path d="M7.47359 4.47397L7.47359 8.10428H3.84277L4.50905 7.74993C5.6196 7.15929 6.5285 6.2505 7.11926 5.14002L7.47359 4.47397Z" fill="url(#IconAICompanionOnLightFillColor__paint4_linear_45419_301)"/><path d="M11.1044 8.10428L10.4382 7.74993C9.32762 7.15929 8.41873 6.2505 7.82797 5.14002L7.47363 4.47397L7.47363 8.10428L11.1044 8.10428Z" fill="url(#IconAICompanionOnLightFillColor__paint5_linear_45419_301)"/><path d="M7.47363 11.7346L7.47363 8.10428L11.1045 8.10428L10.4382 8.45863C9.32762 9.04927 8.41873 9.95806 7.82796 11.0685L7.47363 11.7346Z" fill="url(#IconAICompanionOnLightFillColor__paint6_linear_45419_301)"/><path d="M3.84277 8.10428L7.47359 8.10428L7.47359 11.7346L7.11926 11.0685C6.52849 9.95806 5.6196 9.04927 4.50905 8.45863L3.84277 8.10428Z" fill="url(#IconAICompanionOnLightFillColor__paint7_linear_45419_301)"/><path d="M13.1579 0.100098V2.6312H10.6265C10.6265 2.59464 10.6451 2.55807 10.6823 2.53827L11.5561 2.07354C12.0003 1.83729 12.3639 1.47378 12.6002 1.02958L13.065 0.155922C13.0848 0.118706 13.1213 0.100098 13.1579 0.100098Z" fill="url(#IconAICompanionOnLightFillColor__paint8_radial_45419_301)"/><path d="M15.6894 2.63121L13.158 2.63121L13.158 0.100098C13.1945 0.100098 13.2311 0.118706 13.2509 0.155922L13.7157 1.02958C13.952 1.47378 14.3155 1.83729 14.7598 2.07354L15.6336 2.53827C15.6708 2.55807 15.6894 2.59464 15.6894 2.63121Z" fill="url(#IconAICompanionOnLightFillColor__paint9_radial_45419_301)"/><path d="M13.158 5.16233L13.158 2.63123L15.6894 2.63123C15.6894 2.6678 15.6708 2.70437 15.6336 2.72416L14.7598 3.18889C14.3155 3.42514 13.952 3.78866 13.7157 4.23285L13.2509 5.10651C13.2311 5.14373 13.1945 5.16233 13.158 5.16233Z" fill="url(#IconAICompanionOnLightFillColor__paint10_radial_45419_301)"/><path d="M10.6265 2.63123L13.1586 2.63123V5.16307C13.1221 5.16307 13.0855 5.14446 13.0657 5.10724L12.6007 4.2331C12.3644 3.78891 12.0008 3.42539 11.5566 3.18914L10.6823 2.72416C10.6451 2.70436 10.6265 2.66779 10.6265 2.63123Z" fill="url(#IconAICompanionOnLightFillColor__paint11_radial_45419_301)"/><path d="M13.1579 1.34995L13.0151 1.61843C12.8182 1.98859 12.5152 2.29152 12.145 2.4884L11.8765 2.63123L13.1579 2.63123L13.1579 1.34995Z" fill="url(#IconAICompanionOnLightFillColor__paint12_linear_45419_301)"/><path d="M14.4394 2.63123L14.1709 2.4884C13.8007 2.29152 13.4977 1.98859 13.3008 1.61843L13.158 1.34995L13.158 2.63123L14.4394 2.63123Z" fill="url(#IconAICompanionOnLightFillColor__paint13_linear_45419_301)"/><path d="M13.158 3.91251L13.158 2.63123L14.4394 2.63123L14.1709 2.77406C13.8007 2.97094 13.4977 3.27387 13.3008 3.64403L13.158 3.91251Z" fill="url(#IconAICompanionOnLightFillColor__paint14_linear_45419_301)"/><path d="M11.8765 2.63123L13.1579 2.63123L13.1579 3.91251L13.0151 3.64403C12.8182 3.27387 12.5152 2.97094 12.145 2.77406L11.8765 2.63123Z" fill="url(#IconAICompanionOnLightFillColor__paint15_linear_45419_301)"/><defs><radialGradient id="IconAICompanionOnLightFillColor__paint0_radial_45419_301" cx="0" cy="0" r="1" gradientUnits="userSpaceOnUse" gradientTransform="translate(7.16086 4.56023) rotate(132.641) scale(4.8177 4.81775)"><stop offset="0.130911" stop-color="#222CEB"/><stop offset="0.651476" stop-color="#6499ED"/></radialGradient><radialGradient id="IconAICompanionOnLightFillColor__paint1_radial_45419_301" cx="0" cy="0" r="1" gradientUnits="userSpaceOnUse" gradientTransform="translate(11.4871 2.68402) rotate(110.558) scale(5.78882 5.78936)"><stop offset="0.130911" stop-color="#222CEB"/><stop offset="0.651476" stop-color="#A7DFFF"/></radialGradient><radialGradient id="IconAICompanionOnLightFillColor__paint2_radial_45419_301" cx="0" cy="0" r="1" gradientUnits="userSpaceOnUse" gradientTransform="translate(12.3732 9.04238) rotate(137.357) scale(8.07799 8.07791)"><stop offset="0.130911" stop-color="#222CEB"/><stop offset="0.651476" stop-color="#99D4FF"/></radialGradient><radialGradient id="IconAICompanionOnLightFillColor__paint3_radial_45419_301" cx="0" cy="0" r="1" gradientUnits="userSpaceOnUse" gradientTransform="translate(6.4734 9.45971) rotate(135.582) scale(3.64985 3.64984)"><stop offset="0.130911" stop-color="#2C67FF"/><stop offset="0.651476" stop-color="#6CB0FF"/></radialGradient><linearGradient id="IconAICompanionOnLightFillColor__paint4_linear_45419_301" x1="6.59182" y1="4.47397" x2="5.65843" y2="8.10434" gradientUnits="userSpaceOnUse"><stop offset="0.13" stop-color="#9786FF"/><stop offset="0.736193" stop-color="#2244F4"/></linearGradient><linearGradient id="IconAICompanionOnLightFillColor__paint5_linear_45419_301" x1="8.35383" y1="5.51906" x2="8.90382" y2="7.27925" gradientUnits="userSpaceOnUse"><stop stop-color="#915DFF"/><stop offset="1" stop-color="#0F31E0"/></linearGradient><linearGradient id="IconAICompanionOnLightFillColor__paint6_linear_45419_301" x1="7.47363" y1="9.34896" x2="10.4992" y2="8.10398" gradientUnits="userSpaceOnUse"><stop offset="0.28" stop-color="#1939DF"/><stop offset="1" stop-color="#5570FF"/></linearGradient><linearGradient id="IconAICompanionOnLightFillColor__paint7_linear_45419_301" x1="5.2731" y1="10.9645" x2="7.19821" y2="8.59906" gradientUnits="userSpaceOnUse"><stop stop-color="#8793FF"/><stop offset="1" stop-color="#1235E8"/></linearGradient><radialGradient id="IconAICompanionOnLightFillColor__paint8_radial_45419_301" cx="0" cy="0" r="1" gradientUnits="userSpaceOnUse" gradientTransform="translate(13.1579 1.16336) rotate(130.772) scale(1.93821 1.93823)"><stop stop-color="#134BDB"/><stop offset="0.651476" stop-color="#61A0FF"/></radialGradient><radialGradient id="IconAICompanionOnLightFillColor__paint9_radial_45419_301" cx="0" cy="0" r="1" gradientUnits="userSpaceOnUse" gradientTransform="translate(14.8421 0.442305) rotate(114.186) scale(2.39953 2.39977)"><stop offset="0.130911" stop-color="#222CEB"/><stop offset="0.651476" stop-color="#99C0FF"/></radialGradient><radialGradient id="IconAICompanionOnLightFillColor__paint10_radial_45419_301" cx="0" cy="0" r="1" gradientUnits="userSpaceOnUse" gradientTransform="translate(14.892 2.96324) rotate(137.357) scale(2.85897 2.85893)"><stop stop-color="#0C45D7"/><stop offset="0.651476" stop-color="#99D4FF"/></radialGradient><radialGradient id="IconAICompanionOnLightFillColor__paint11_radial_45419_301" cx="0" cy="0" r="1" gradientUnits="userSpaceOnUse" gradientTransform="translate(12.8039 3.11094) rotate(135.583) scale(1.29175 1.29175)"><stop offset="0.130911" stop-color="#2C67FF"/><stop offset="0.651476" stop-color="#6CB0FF"/></radialGradient><linearGradient id="IconAICompanionOnLightFillColor__paint12_linear_45419_301" x1="12.8467" y1="1.34995" x2="12.5173" y2="2.63125" gradientUnits="userSpaceOnUse"><stop offset="0.13" stop-color="#BEE8FF"/><stop offset="0.736193" stop-color="#72D5FB"/></linearGradient><linearGradient id="IconAICompanionOnLightFillColor__paint13_linear_45419_301" x1="13.3685" y1="1.36843" x2="13.7894" y2="2.63162" gradientUnits="userSpaceOnUse"><stop stop-color="#59C8FB"/><stop offset="1" stop-color="#8CDEFB"/></linearGradient><linearGradient id="IconAICompanionOnLightFillColor__paint14_linear_45419_301" x1="13.158" y1="3.07052" x2="14.2258" y2="2.63112" gradientUnits="userSpaceOnUse"><stop offset="0.28" stop-color="#67D9FF"/><stop offset="1" stop-color="#A7E6FF"/></linearGradient><linearGradient id="IconAICompanionOnLightFillColor__paint15_linear_45419_301" x1="12.3813" y1="3.64072" x2="13.3157" y2="2.63144" gradientUnits="userSpaceOnUse"><stop offset="0.221428" stop-color="#FCFEFF"/><stop offset="0.895295" stop-color="#48D3FF"/></linearGradient></defs></svg>
